<svg class="animated" id="freepik_stories-niche-service-marketplace" xmlns="http://www.w3.org/2000/svg" viewBox="0 0 500 500" version="1.1" xmlns:xlink="http://www.w3.org/1999/xlink" xmlns:svgjs="http://svgjs.com/svgjs">
	<style>
		svg#freepik_stories-niche-service-marketplace:not(.animated) .animable {opacity: 0;}svg#freepik_stories-niche-service-marketplace.animated #freepik--Device--inject-35 {animation: 6s Infinite  linear floating;animation-delay: 0s;}svg#freepik_stories-niche-service-marketplace.animated #freepik--Cart--inject-35 {animation: 3s Infinite  linear floating;animation-delay: 0s;}svg#freepik_stories-niche-service-marketplace.animated #freepik--Character--inject-35 {animation: 3s Infinite  linear floating;animation-delay: 0s;}            @keyframes floating {                0% {                    opacity: 1;                    transform: translateY(0px);                }                50% {                    transform: translateY(-10px);                }                100% {                    opacity: 1;                    transform: translateY(0px);                }            }
	</style>
	<g id="freepik--Shadow--inject-35" class="animable" style="transform-origin: 250px 412.39px;">
		<ellipse id="freepik--path--inject-35" cx="250" cy="412.39" rx="193.89" ry="11.32" style="fill: rgb(245, 245, 245); transform-origin: 250px 412.39px;" class="animable">
		</ellipse>
	</g>
	<g id="freepik--Device--inject-35" class="animable" style="transform-origin: 244.577px 218.415px;">
		<path d="M318.68,95H297.27V341.83h21.41a18,18,0,0,0,18-18V113A18,18,0,0,0,318.68,95Z" style="fill: rgb(38, 50, 56); transform-origin: 316.975px 218.415px;" id="el4vdmvasugt" class="animable">
		</path>
		<path d="M334.11,119.76a1.73,1.73,0,1,1,3.45,0v16.53a1.73,1.73,0,0,1-3.45,0Z" style="fill: #FF005E; transform-origin: 335.835px 127.894px;" id="elxzl7vtnby79" class="animable">
		</path>
		<g id="elvisfslxx6b">
			<path d="M334.11,119.76a1.73,1.73,0,1,1,3.45,0v16.53a1.73,1.73,0,0,1-3.45,0Z" style="fill: rgb(255, 255, 255); opacity: 0.3; transform-origin: 335.835px 127.894px;" class="animable" id="el7v46np0vczs">
			</path>
		</g>
		<path d="M314.3,341.83H173.62a18,18,0,0,1-18-18V113a18,18,0,0,1,18-18H314.3a18,18,0,0,1,18,18V323.85A18,18,0,0,1,314.3,341.83Z" style="fill: #FF005E; transform-origin: 243.96px 218.415px;" id="eld58qm1rvkju" class="animable">
		</path>
		<g id="eldj4ltky15r8">
			<rect x="161.15" y="112.66" width="164.54" height="211.5" style="fill: rgb(255, 255, 255); opacity: 0.6; transform-origin: 243.42px 218.41px; transform: rotate(180deg);" class="animable" id="elkms26d6pui">
			</rect>
		</g>
		<g id="elf5jw47y9zzb">
			<path d="M240.22,104.76a3.21,3.21,0,1,0,3.2-3.2A3.21,3.21,0,0,0,240.22,104.76Z" style="opacity: 0.2; transform-origin: 243.43px 104.77px;" class="animable" id="el1iidter77ar">
			</path>
		</g>
		<path d="M269.14,149.76a10.38,10.38,0,0,0,10.51,11.75,13.36,13.36,0,0,0,13-11.75L293.87,138H270.38Z" style="fill: #FF005E; transform-origin: 281.459px 149.756px;" id="el8hjjv4drfpg" class="animable">
		</path>
		<path d="M222.16,149.76a10.37,10.37,0,0,0,10.51,11.75,13.37,13.37,0,0,0,13-11.75L246.88,138H223.39Z" style="fill: #FF005E; transform-origin: 234.474px 149.756px;" id="elxten1rkrwxb" class="animable">
		</path>
		<path d="M175.17,149.76a10.38,10.38,0,0,0,10.51,11.75,13.36,13.36,0,0,0,13-11.75L199.9,138H176.41Z" style="fill: #FF005E; transform-origin: 187.489px 149.756px;" id="elp4cm0hbrse" class="animable">
		</path>
		<path d="M292.63,149.76a10.39,10.39,0,0,0,10.52,11.75,13.38,13.38,0,0,0,13-11.75L317.36,138H293.87Z" style="fill: #FF005E; transform-origin: 304.95px 149.756px;" id="el1yzqfjuj07h" class="animable">
		</path>
		<path d="M245.65,149.76a10.38,10.38,0,0,0,10.51,11.75,13.36,13.36,0,0,0,13-11.75L270.38,138h-23.5Z" style="fill: #FF005E; transform-origin: 257.969px 149.756px;" id="elt3vvm2vy99c" class="animable">
		</path>
		<path d="M198.66,149.76a10.38,10.38,0,0,0,10.51,11.75,13.38,13.38,0,0,0,13-11.75L223.39,138H199.9Z" style="fill: #FF005E; transform-origin: 210.979px 149.756px;" id="el6vvai6i4l7j" class="animable">
		</path>
		<path d="M151.68,149.76a10.38,10.38,0,0,0,10.51,11.75,13.36,13.36,0,0,0,13-11.75L176.41,138h-23.5Z" style="fill: #FF005E; transform-origin: 163.999px 149.756px;" id="el9pa0hun4m76" class="animable">
		</path>
		<g id="elakkzcw28q5l">
			<g style="opacity: 0.9; transform-origin: 234.474px 149.756px;" class="animable" id="els6xdt6jmx4p">
				<path d="M292.63,149.76a10.39,10.39,0,0,0,10.52,11.75,13.38,13.38,0,0,0,13-11.75L317.36,138H293.87Z" style="fill: rgb(255, 255, 255); transform-origin: 304.95px 149.756px;" id="elt00aeocolzt" class="animable">
				</path>
				<path d="M245.65,149.76a10.38,10.38,0,0,0,10.51,11.75,13.36,13.36,0,0,0,13-11.75L270.38,138h-23.5Z" style="fill: rgb(255, 255, 255); transform-origin: 257.969px 149.756px;" id="elvda0d93umq" class="animable">
				</path>
				<path d="M198.66,149.76a10.38,10.38,0,0,0,10.51,11.75,13.38,13.38,0,0,0,13-11.75L223.39,138H199.9Z" style="fill: rgb(255, 255, 255); transform-origin: 210.979px 149.756px;" id="elkyfd2j2hye" class="animable">
				</path>
				<path d="M151.68,149.76a10.38,10.38,0,0,0,10.51,11.75,13.36,13.36,0,0,0,13-11.75L176.41,138h-23.5Z" style="fill: rgb(255, 255, 255); transform-origin: 163.999px 149.756px;" id="elo0bhkpmfune" class="animable">
				</path>
			</g>
		</g>
		<polygon points="152.91 138.01 317.45 138.01 325.26 112.66 160.72 112.66 152.91 138.01" style="fill: #FF005E; transform-origin: 239.085px 125.335px;" id="el4cty2kqi0zs" class="animable">
		</polygon>
		<g id="elh9sngho0u0i">
			<polygon points="152.91 138.01 317.45 138.01 325.26 112.66 160.72 112.66 152.91 138.01" style="opacity: 0.2; transform-origin: 239.085px 125.335px;" class="animable" id="el8jc5fxfz2pi">
			</polygon>
		</g>
		<g id="el2dkerlw9qtd">
			<g style="opacity: 0.2; transform-origin: 243.44px 332.75px;" class="animable" id="el3awr6wlok6l">
				<path d="M269.94,334h-53a1.25,1.25,0,0,1,0-2.5h53a1.25,1.25,0,0,1,0,2.5Z" id="eli9whgij33xr" class="animable" style="transform-origin: 243.44px 332.75px;">
				</path>
			</g>
		</g>
		<g id="el641xejryy0c">
			<rect x="176.25" y="164.98" width="64.2" height="64.2" rx="5.54" style="opacity: 0.2; transform-origin: 208.35px 197.08px;" class="animable" id="el0v2g8yotzuyf">
			</rect>
		</g>
		<rect x="173.68" y="162.41" width="64.2" height="64.2" rx="5.54" style="fill: #FF005E; transform-origin: 205.78px 194.51px;" id="elmlbk9gbzuh8" class="animable">
		</rect>
		<path d="M183.84,177.47l-2.89,2a.8.8,0,0,1-1.22-.88l1-3.37a.79.79,0,0,0-.28-.87l-2.81-2.13a.8.8,0,0,1,.47-1.43l3.52-.07a.8.8,0,0,0,.74-.53l1.16-3.34a.79.79,0,0,1,1.5,0l1.16,3.34a.8.8,0,0,0,.73.53l3.53.07a.8.8,0,0,1,.46,1.43l-2.81,2.13a.82.82,0,0,0-.28.87l1,3.37a.79.79,0,0,1-1.21.88l-2.9-2A.8.8,0,0,0,183.84,177.47Z" style="fill: rgb(255, 255, 255); transform-origin: 184.275px 172.961px;" id="eldpl9vnizxav" class="animable">
		</path>
		<path d="M208.49,188.85l15.73.3a1.44,1.44,0,0,1,1.4,1.16l3,14.77a2.41,2.41,0,0,1-1.87,2.87,2.15,2.15,0,0,1-.51.05c-6.51-.23-12.3-.7-20.42-.84-9.58-.18-7.17,1-18.43,1-6.79,0-7.88-7.77-5-8.09,13.2-1.42,17-5.33,22.15-9.94A5.78,5.78,0,0,1,208.49,188.85Z" style="fill: rgb(38, 50, 56); transform-origin: 204.786px 198.501px;" id="el25ea3e7sv13" class="animable">
		</path>
		<path d="M205.89,203.12c2.66,0,4.3-2,5.63-3.55.71-.86,1.52-1.82,2-1.82h13.56l-.5-2.46H213.57c-1.67,0-2.82,1.37-3.93,2.7s-2.24,2.67-3.75,2.67Z" style="fill: rgb(255, 255, 255); transform-origin: 216.485px 199.205px;" id="elnh0mjjiwm4q" class="animable">
		</path>
		<rect x="173.68" y="235.98" width="40.42" height="7.71" rx="3" style="fill: rgb(38, 50, 56); transform-origin: 193.89px 239.835px;" id="elfozgt5g7w46" class="animable">
		</rect>
		<g id="elcz1rm5n7w8">
			<rect x="173.68" y="235.98" width="40.42" height="7.71" rx="3" style="fill: rgb(255, 255, 255); opacity: 0.4; transform-origin: 193.89px 239.835px;" class="animable" id="elpaouibi5is">
			</rect>
		</g>
		<rect x="225.1" y="235.98" width="13.95" height="7.71" rx="3" style="fill: #FF005E; transform-origin: 232.075px 239.835px;" id="eldt0skpk3mpg" class="animable">
		</rect>
		<g id="elhoqfl2o6ln">
			<rect x="261.14" y="173.59" width="51.36" height="51.36" rx="5.54" style="opacity: 0.2; transform-origin: 286.82px 199.27px;" class="animable" id="elys58qyipt9i">
			</rect>
		</g>
		<rect x="259.09" y="171.54" width="51.36" height="51.36" rx="5.54" style="fill: #FF005E; transform-origin: 284.77px 197.22px;" id="elu46tqxwbqj" class="animable">
		</rect>
		<g id="el8wxt1i6hu1f">
			<rect x="259.09" y="171.54" width="51.36" height="51.36" rx="5.54" style="fill: rgb(255, 255, 255); opacity: 0.8; transform-origin: 284.77px 197.22px;" class="animable" id="elvj63frdftv">
			</rect>
		</g>
		<path d="M267.69,185.31,265.32,187a.65.65,0,0,1-1-.72l.84-2.77a.66.66,0,0,0-.23-.71L262.62,181a.65.65,0,0,1,.38-1.17l2.89-.06a.66.66,0,0,0,.61-.44l.95-2.74a.65.65,0,0,1,1.23,0l.95,2.74a.66.66,0,0,0,.61.44l2.89.06a.65.65,0,0,1,.38,1.17l-2.31,1.75a.66.66,0,0,0-.23.71l.84,2.77a.65.65,0,0,1-1,.72l-2.37-1.65A.65.65,0,0,0,267.69,185.31Z" style="fill: #FF005E; transform-origin: 268.065px 181.636px;" id="el6dyxwoi1r" class="animable">
		</path>
		<rect x="259.09" y="230.39" width="32.34" height="6.17" rx="3" style="fill: rgb(38, 50, 56); transform-origin: 275.26px 233.475px;" id="el6plge93gi9j" class="animable">
		</rect>
		<g id="el6vv8r61mw4g">
			<rect x="259.09" y="230.39" width="32.34" height="6.17" rx="3" style="fill: rgb(255, 255, 255); opacity: 0.4; transform-origin: 275.26px 233.475px;" class="animable" id="eloe0kkdlfmt">
			</rect>
		</g>
		<rect x="300.22" y="230.39" width="11.16" height="6.17" rx="3" style="fill: #FF005E; transform-origin: 305.8px 233.475px;" id="el9ixwk68lic" class="animable">
		</rect>
		<path d="M283.54,194.08c-2.35,5.06-7.21,6.87-17.83,8-2.32.26-1.44,6.48,4,6.51,9.07.05,7.13-.91,14.84-.77,6.53.11,11.19.49,16.44.68a2.71,2.71,0,0,0,.41,0,2,2,0,0,0,1.51-2.31s-2.11-8.88-2.41-11.89c-.19-1.87,0-7.49,0-7.49H283.74S284.31,192.43,283.54,194.08Z" style="fill: #FF005E; transform-origin: 283.725px 197.701px;" id="eln3hkz86zt4g" class="animable">
		</path>
		<g id="elgdagp564iai">
			<g style="opacity: 0.4; transform-origin: 283.725px 197.701px;" class="animable" id="elryrmj27tao">
				<path d="M283.54,194.08c-2.35,5.06-7.21,6.87-17.83,8-2.32.26-1.44,6.48,4,6.51,9.07.05,7.13-.91,14.84-.77,6.53.11,11.19.49,16.44.68a2.71,2.71,0,0,0,.41,0,2,2,0,0,0,1.51-2.31s-2.11-8.88-2.41-11.89c-.19-1.87,0-7.49,0-7.49H283.74S284.31,192.43,283.54,194.08Z" id="el1g0rt7wh47q" class="animable" style="transform-origin: 283.725px 197.701px;">
				</path>
			</g>
		</g>
		<path d="M302.93,206.16s-.27-1.15-.63-2.74c-2.2.17-9.83.68-21.56.68-9.67,0-13.14-1.29-14.36-2.09l-.67.08c-1.54.17-1.66,3,0,4.84v1.73l1.1,1.11,1-1,1,1,1-1,1,1,1-1,1,1,1-1,1,1,1-1,1,1,1-1,1,1,1.11-1.11v-.77c1-.06,2.35-.1,4.26-.06s3.86.1,5.6.17v.66l1.1,1.11,1-1,1,1,1-1,1,1,1-1,1,1,1-1,1,1,1-1,1,1,1.11-1.11v-1.11A2,2,0,0,0,302.93,206.16Z" style="fill: rgb(38, 50, 56); transform-origin: 283.72px 205.89px;" id="el86nvdcawuym" class="animable">
		</path>
		<g id="el4xgd073vmo3">
			<path d="M302.93,206.16s-.27-1.15-.63-2.74c-2.2.17-9.83.68-21.56.68-9.67,0-13.14-1.29-14.36-2.09l-.67.08c-1.54.17-1.66,3,0,4.84v1.73l1.1,1.11,1-1,1,1,1-1,1,1,1-1,1,1,1-1,1,1,1-1,1,1,1-1,1,1,1.11-1.11v-.77c1-.06,2.35-.1,4.26-.06s3.86.1,5.6.17v.66l1.1,1.11,1-1,1,1,1-1,1,1,1-1,1,1,1-1,1,1,1-1,1,1,1.11-1.11v-1.11A2,2,0,0,0,302.93,206.16Z" style="fill: rgb(255, 255, 255); opacity: 0.5; transform-origin: 283.72px 205.89px;" class="animable" id="elg0ie4faidza">
			</path>
		</g>
		<g id="elac6nhv0zljm">
			<rect x="261.14" y="252.38" width="51.36" height="51.36" rx="5.54" style="opacity: 0.2; transform-origin: 286.82px 278.06px;" class="animable" id="eluzo8p15s4w">
			</rect>
		</g>
		<rect x="259.09" y="250.32" width="51.36" height="51.36" rx="5.54" style="fill: #FF005E; transform-origin: 284.77px 276px;" id="elv413x9yl5hj" class="animable">
		</rect>
		<g id="eld4ic1d8sjwj">
			<rect x="259.09" y="250.32" width="51.36" height="51.36" rx="5.54" style="fill: rgb(255, 255, 255); opacity: 0.8; transform-origin: 284.77px 276px;" class="animable" id="eltceuaa4ethr">
			</rect>
		</g>
		<path d="M267.69,263.16l-2.37,1.65a.65.65,0,0,1-1-.72l.84-2.77a.66.66,0,0,0-.23-.71l-2.31-1.75a.66.66,0,0,1,.38-1.18l2.89-.05a.66.66,0,0,0,.61-.44l.95-2.74a.65.65,0,0,1,1.23,0l.95,2.74a.66.66,0,0,0,.61.44l2.89.05a.66.66,0,0,1,.38,1.18l-2.31,1.75a.66.66,0,0,0-.23.71l.84,2.77a.65.65,0,0,1-1,.72l-2.37-1.65A.65.65,0,0,0,267.69,263.16Z" style="fill: #FF005E; transform-origin: 268.065px 259.471px;" id="elk65s27evsph" class="animable">
		</path>
		<rect x="259.09" y="309.18" width="32.34" height="6.17" rx="3" style="fill: rgb(38, 50, 56); transform-origin: 275.26px 312.265px;" id="elsovv7yn0vr" class="animable">
		</rect>
		<g id="elkkcnyfzfxv">
			<rect x="259.09" y="309.18" width="32.34" height="6.17" rx="3" style="fill: rgb(255, 255, 255); opacity: 0.4; transform-origin: 275.26px 312.265px;" class="animable" id="elgl9hbxnzi9e">
			</rect>
		</g>
		<rect x="300.22" y="309.18" width="11.16" height="6.17" rx="3" style="fill: #FF005E; transform-origin: 305.8px 312.265px;" id="el38kfnb2qi7d" class="animable">
		</rect>
		<path d="M287.72,271.8l12.49.24a1.14,1.14,0,0,1,1.11.92l2.38,11.73a1.91,1.91,0,0,1-1.49,2.27,1.33,1.33,0,0,1-.4,0c-5.17-.18-9.77-.55-16.21-.66-7.61-.14-5.7.8-14.64.76-5.38,0-6.25-6.17-4-6.43,10.47-1.12,13.48-4.22,17.58-7.89A4.62,4.62,0,0,1,287.72,271.8Z" style="fill: rgb(38, 50, 56); transform-origin: 284.772px 279.423px;" id="el6khhm17zsp5" class="animable">
		</path>
		<path d="M277.5,270.9l-.18.3a1.21,1.21,0,0,0,0,1.25c1,1.61,6.34,1.64,7.4,1.63a.4.4,0,0,0,.39-.26.41.41,0,0,0-.09-.46c-1.4-1.41-4-3.71-6-3.42A2.14,2.14,0,0,0,277.5,270.9Zm6.15,2.32c-2.34-.08-5.15-.45-5.61-1.21-.05-.08-.08-.19,0-.41a1.42,1.42,0,0,1,1.05-.82C280.14,270.63,281.8,271.53,283.65,273.22Z" style="fill: #FF005E; transform-origin: 281.145px 271.998px;" id="elhad3s2mokkc" class="animable">
		</path>
		<path d="M278.15,275.71a1.41,1.41,0,0,0-.17.32,1.22,1.22,0,0,0,.5,1.47,2,2,0,0,0,1.59.42c2.28-.31,4.88-3.86,5-4a.43.43,0,0,0-.32-.68C283.07,273.14,279.16,274.24,278.15,275.71Zm5.66-1.58c-.95,1.13-2.58,2.77-3.85,2.95a1.21,1.21,0,0,1-.95-.25c-.33-.26-.27-.42-.23-.5C279.1,275.46,281.9,274.37,283.81,274.13Z" style="fill: #FF005E; transform-origin: 281.526px 275.591px;" id="el5ouaipdq5ni" class="animable">
		</path>
		<g id="elqi5q4g81n9">
			<rect x="180.41" y="252.38" width="51.36" height="51.36" rx="5.54" style="opacity: 0.2; transform-origin: 206.09px 278.06px;" class="animable" id="elnamqnhloes">
			</rect>
		</g>
		<rect x="178.36" y="250.32" width="51.36" height="51.36" rx="5.54" style="fill: #FF005E; transform-origin: 204.04px 276px;" id="elwn9m2g3qz6l" class="animable">
		</rect>
		<g id="el0y2e26j3b8xb">
			<rect x="178.36" y="250.32" width="51.36" height="51.36" rx="5.54" style="fill: rgb(255, 255, 255); opacity: 0.8; transform-origin: 204.04px 276px;" class="animable" id="eloztlz0h4mtp">
			</rect>
		</g>
		<path d="M185.69,263.16l-2.37,1.65a.65.65,0,0,1-1-.72l.84-2.77a.64.64,0,0,0-.23-.71l-2.31-1.75a.66.66,0,0,1,.38-1.18l2.9-.05a.66.66,0,0,0,.6-.44l.95-2.74a.65.65,0,0,1,1.23,0l.95,2.74a.66.66,0,0,0,.61.44l2.89.05a.66.66,0,0,1,.38,1.18l-2.3,1.75a.64.64,0,0,0-.23.71l.83,2.77a.65.65,0,0,1-1,.72l-2.37-1.65A.65.65,0,0,0,185.69,263.16Z" style="fill: #FF005E; transform-origin: 186.065px 259.471px;" id="elrko71t3ujd" class="animable">
		</path>
		<rect x="178.36" y="309.18" width="32.34" height="6.17" rx="3" style="fill: rgb(38, 50, 56); transform-origin: 194.53px 312.265px;" id="elskcze39savr" class="animable">
		</rect>
		<g id="el2jj97zlueni">
			<rect x="178.36" y="309.18" width="32.34" height="6.17" rx="3" style="fill: rgb(255, 255, 255); opacity: 0.4; transform-origin: 194.53px 312.265px;" class="animable" id="elctsv39dzwxc">
			</rect>
		</g>
		<rect x="219.49" y="309.18" width="11.16" height="6.17" rx="3" style="fill: #FF005E; transform-origin: 225.07px 312.265px;" id="elvdsl21ld1ec" class="animable">
		</rect>
		<path d="M207.08,271.09l12.91.25a1.2,1.2,0,0,1,1.15,1l2.46,12.12a2,2,0,0,1-2,2.39c-5.34-.19-10.1-.57-16.75-.69-7.86-.14-5.89.83-15.13.79-5.57,0-6.47-6.38-4.1-6.64,10.83-1.16,13.94-4.37,18.18-8.16A4.8,4.8,0,0,1,207.08,271.09Z" style="fill: #FF005E; transform-origin: 204.015px 279.017px;" id="elzbbg5wh3ml" class="animable">
		</path>
		<g id="ellkdce2t0iuh">
			<g style="opacity: 0.2; transform-origin: 204.015px 279.017px;" class="animable" id="elsm60unduj">
				<path d="M207.08,271.09l12.91.25a1.2,1.2,0,0,1,1.15,1l2.46,12.12a2,2,0,0,1-2,2.39c-5.34-.19-10.1-.57-16.75-.69-7.86-.14-5.89.83-15.13.79-5.57,0-6.47-6.38-4.1-6.64,10.83-1.16,13.94-4.37,18.18-8.16A4.8,4.8,0,0,1,207.08,271.09Z" id="el5o3t7dyt593" class="animable" style="transform-origin: 204.015px 279.017px;">
				</path>
			</g>
		</g>
		<g id="elnqnhhmuxbv">
			<path d="M222.06,286.77a2,2,0,0,0,1.54-2.35l-.9-4.44a15.76,15.76,0,0,0-3.47,4.21,117.08,117.08,0,0,1-12.85-.75,39.93,39.93,0,0,0-12.18.75,7,7,0,0,0-2.61-4.93,44.49,44.49,0,0,1-5.93,1c-2.37.26-1.47,6.61,4.1,6.64,9.24,0,7.27-.93,15.13-.79,6.65.12,11.41.5,16.75.69A2,2,0,0,0,222.06,286.77Z" style="fill: rgb(255, 255, 255); opacity: 0.5; transform-origin: 204.035px 283.08px;" class="animable" id="elp671ftdbydm">
			</path>
		</g>
		<g id="el2n1s1tqaroa">
			<g style="opacity: 0.5; transform-origin: 199.94px 276.544px;" class="animable" id="ely7meem3h3n">
				<path d="M205.46,274.26l-1.84-2c-.45.41-.89.81-1.34,1.2l1.87,2a.9.9,0,0,0,1.31-1.23Z" id="elu28mtt5tan" class="animable" style="transform-origin: 203.975px 273.983px;">
				</path>
				<path d="M197.36,280.61a.9.9,0,0,0,0-1.27L196,277.79c-.56.25-1.15.49-1.79.71l1.93,2.07A.9.9,0,0,0,197.36,280.61Z" id="el85j3nsxzy5o" class="animable" style="transform-origin: 195.916px 279.309px;">
				</path>
				<path d="M200.52,278.58a.9.9,0,0,0,1.31-1.22l-1.84-2c-.47.35-1,.69-1.49,1Z" id="el1714ofv1lha" class="animable" style="transform-origin: 200.255px 277.081px;">
				</path>
			</g>
		</g>
		<g id="elo5nrq7h7drd">
			<path d="M215.52,277.13a3.22,3.22,0,1,1-3.22-3.21A3.22,3.22,0,0,1,215.52,277.13Z" style="fill: rgb(255, 255, 255); opacity: 0.5; transform-origin: 212.3px 277.14px;" class="animable" id="elz6nzgu6780n">
			</path>
		</g>
	</g>
	<g id="freepik--Cart--inject-35" class="animable" style="transform-origin: 375.983px 357.447px;">
		<rect x="317.5" y="304.2" width="44.11" height="3.16" rx="1.58" style="fill: rgb(38, 50, 56); transform-origin: 339.555px 305.78px;" id="elqlgbcyy89m" class="animable">
		</rect>
		<g id="elg6webjwz2jm">
			<g style="opacity: 0.5; transform-origin: 339.555px 305.78px;" class="animable" id="eltdx6d3o9hs">
				<rect x="317.5" y="304.2" width="44.11" height="3.16" rx="1.58" style="fill: rgb(255, 255, 255); transform-origin: 339.555px 305.78px;" id="eljwsazzimbu" class="animable">
				</rect>
			</g>
		</g>
		<rect x="317.92" y="304.2" width="3.16" height="24.09" rx="1.58" style="fill: rgb(38, 50, 56); transform-origin: 319.5px 316.245px;" id="elatjyd0xjcod" class="animable">
		</rect>
		<g id="elpbd89hewhl">
			<g style="opacity: 0.7; transform-origin: 319.5px 316.245px;" class="animable" id="el2nv6ko510hz">
				<rect x="317.92" y="304.2" width="3.16" height="24.09" rx="1.58" style="fill: rgb(255, 255, 255); transform-origin: 319.5px 316.245px;" id="elyygv50notz" class="animable">
				</rect>
			</g>
		</g>
		<rect x="358.46" y="304.2" width="3.16" height="24.09" rx="1.58" style="fill: rgb(38, 50, 56); transform-origin: 360.04px 316.245px;" id="el9cc9umjhwih" class="animable">
		</rect>
		<g id="elmg8s9g0eg2j">
			<g style="opacity: 0.7; transform-origin: 360.04px 316.245px;" class="animable" id="elfrvsmost2ui">
				<rect x="358.46" y="304.2" width="3.16" height="24.09" rx="1.58" style="fill: rgb(255, 255, 255); transform-origin: 360.04px 316.245px;" id="elfi3rc5l5wjl" class="animable">
				</rect>
			</g>
		</g>
		<g id="elkp0d2v1ko4">
			<rect x="356.09" y="306.29" width="64.2" height="64.2" rx="5.54" style="fill: #FF005E; transform-origin: 388.19px 338.39px; transform: rotate(-175deg);" class="animable" id="eltvizve7hqjr">
			</rect>
		</g>
		<g id="el5agfrjfx86">
			<rect x="356.09" y="306.29" width="64.2" height="64.2" rx="5.54" style="opacity: 0.5; transform-origin: 388.19px 338.39px; transform: rotate(-175deg);" class="animable" id="elbeauqocmxp6">
			</rect>
		</g>
		<g id="elfi99l8vmu8w">
			<rect x="358.88" y="303.95" width="64.2" height="64.2" rx="5.54" style="fill: #FF005E; transform-origin: 390.98px 336.05px; transform: rotate(-175deg);" class="animable" id="el7chbxsarqpi">
			</rect>
		</g>
		<g id="eli709efssys">
			<rect x="358.88" y="303.95" width="64.2" height="64.2" rx="5.54" style="fill: rgb(255, 255, 255); opacity: 0.3; transform-origin: 390.98px 336.05px; transform: rotate(-175deg);" class="animable" id="elw9xzchq5p7q">
			</rect>
		</g>
		<path d="M388.77,330.17l-15.7-1.07a1.46,1.46,0,0,0-1.49,1l-4.27,14.45a2.41,2.41,0,0,0,1.61,3,2.11,2.11,0,0,0,.5.1c6.52.33,12.32.37,20.42.94,9.56.66,7.05,1.64,18.28,2.57,6.76.55,8.53-7.06,5.68-7.63-13-2.56-16.45-6.79-21.2-11.84A5.86,5.86,0,0,0,388.77,330.17Z" style="fill: rgb(255, 255, 255); transform-origin: 391.158px 340.142px;" id="el9aimpiyo8bw" class="animable">
		</path>
		<path d="M390.11,344.62c-2.64-.23-4.11-2.34-5.29-4-.64-.91-1.36-1.95-1.88-2l-13.51-1.18.71-2.41,13,1.14c1.67.15,2.69,1.61,3.68,3s2,2.86,3.5,3Z" style="fill: #FF005E; transform-origin: 379.875px 339.825px;" id="elddwz5hhzplw" class="animable">
		</path>
		<path d="M328.75,376.74h0a1.48,1.48,0,0,0,1.19-1.73l-8.71-47a1.48,1.48,0,0,0-1.73-1.19h0a1.48,1.48,0,0,0-1.18,1.73l8.7,47A1.49,1.49,0,0,0,328.75,376.74Z" style="fill: rgb(38, 50, 56); transform-origin: 324.13px 351.779px;" id="el3vwe3mb1so8" class="animable">
		</path>
		<path d="M346.63,376.74h0a1.48,1.48,0,0,0,1.29-1.65l-5.8-47a1.48,1.48,0,0,0-1.65-1.29h0a1.48,1.48,0,0,0-1.29,1.65l5.8,47A1.48,1.48,0,0,0,346.63,376.74Z" style="fill: rgb(38, 50, 56); transform-origin: 343.55px 351.77px;" id="elzpdb07ybpde" class="animable">
		</path>
		<path d="M364.51,376.74h0a1.48,1.48,0,0,0,1.39-1.57l-2.9-47a1.49,1.49,0,0,0-1.57-1.39h0a1.49,1.49,0,0,0-1.39,1.57l2.9,47A1.48,1.48,0,0,0,364.51,376.74Z" style="fill: rgb(38, 50, 56); transform-origin: 362.97px 351.76px;" id="elwc950xj7pyd" class="animable">
		</path>
		<rect x="380.91" y="326.8" width="2.97" height="49.94" rx="1.48" style="fill: rgb(38, 50, 56); transform-origin: 382.395px 351.77px;" id="elx2ooukob5z" class="animable">
		</rect>
		<g id="elan5cww8x6zb">
			<g style="opacity: 0.5; transform-origin: 351.087px 351.771px;" class="animable" id="elad21mjyu4xc">
				<path d="M328.75,376.74h0a1.48,1.48,0,0,0,1.19-1.73l-8.71-47a1.48,1.48,0,0,0-1.73-1.19h0a1.48,1.48,0,0,0-1.18,1.73l8.7,47A1.49,1.49,0,0,0,328.75,376.74Z" style="fill: rgb(255, 255, 255); transform-origin: 324.13px 351.779px;" id="elwadl4toafb" class="animable">
				</path>
				<path d="M346.63,376.74h0a1.48,1.48,0,0,0,1.29-1.65l-5.8-47a1.48,1.48,0,0,0-1.65-1.29h0a1.48,1.48,0,0,0-1.29,1.65l5.8,47A1.48,1.48,0,0,0,346.63,376.74Z" style="fill: rgb(255, 255, 255); transform-origin: 343.55px 351.77px;" id="eld8fytgzotat" class="animable">
				</path>
				<path d="M364.51,376.74h0a1.48,1.48,0,0,0,1.39-1.57l-2.9-47a1.49,1.49,0,0,0-1.57-1.39h0a1.49,1.49,0,0,0-1.39,1.57l2.9,47A1.48,1.48,0,0,0,364.51,376.74Z" style="fill: rgb(255, 255, 255); transform-origin: 362.97px 351.76px;" id="elhjc4zyv580k" class="animable">
				</path>
				<rect x="380.91" y="326.8" width="2.97" height="49.94" rx="1.48" style="fill: rgb(255, 255, 255); transform-origin: 382.395px 351.77px;" id="elolsywyizun" class="animable">
				</rect>
			</g>
		</g>
		<rect x="319.5" y="325.32" width="62.89" height="2.97" rx="1.48" style="fill: rgb(38, 50, 56); transform-origin: 350.945px 326.805px;" id="ele1yn49b4ki6" class="animable">
		</rect>
		<rect x="322.59" y="341.96" width="59.8" height="2.97" rx="1.48" style="fill: rgb(38, 50, 56); transform-origin: 352.49px 343.445px;" id="el1klbh6gun0u" class="animable">
		</rect>
		<rect x="325.67" y="358.61" width="56.72" height="2.97" rx="1.48" style="fill: rgb(38, 50, 56); transform-origin: 354.03px 360.095px;" id="eleq6r6v310g7" class="animable">
		</rect>
		<rect x="328.75" y="375.26" width="53.64" height="2.97" rx="1.48" style="fill: rgb(38, 50, 56); transform-origin: 355.57px 376.745px;" id="elp8kr1zjd6w8" class="animable">
		</rect>
		<g id="el3zp809dra25">
			<g style="opacity: 0.7; transform-origin: 350.945px 351.775px;" class="animable" id="elx1qr4xjt6l">
				<rect x="319.5" y="325.32" width="62.89" height="2.97" rx="1.48" style="fill: rgb(255, 255, 255); transform-origin: 350.945px 326.805px;" id="eluk14ftayqmh" class="animable">
				</rect>
				<rect x="322.59" y="341.96" width="59.8" height="2.97" rx="1.48" style="fill: rgb(255, 255, 255); transform-origin: 352.49px 343.445px;" id="el04x8y93s45rs" class="animable">
				</rect>
				<rect x="325.67" y="358.61" width="56.72" height="2.97" rx="1.48" style="fill: rgb(255, 255, 255); transform-origin: 354.03px 360.095px;" id="elu2bi2eogvcs" class="animable">
				</rect>
				<rect x="328.75" y="375.26" width="53.64" height="2.97" rx="1.48" style="fill: rgb(255, 255, 255); transform-origin: 355.57px 376.745px;" id="elcoux45ib6ak" class="animable">
				</rect>
			</g>
		</g>
		<rect x="382.55" y="325.32" width="50.65" height="2.97" rx="1.48" style="fill: rgb(38, 50, 56); transform-origin: 407.875px 326.805px;" id="el672z7pux2f6" class="animable">
		</rect>
		<rect x="382.55" y="341.96" width="47.57" height="2.97" rx="1.48" style="fill: rgb(38, 50, 56); transform-origin: 406.335px 343.445px;" id="elkwp8f5zvnd7" class="animable">
		</rect>
		<rect x="382.55" y="358.61" width="44.49" height="2.97" rx="1.48" style="fill: rgb(38, 50, 56); transform-origin: 404.795px 360.095px;" id="elbmkwfmg0xwf" class="animable">
		</rect>
		<rect x="382.55" y="375.26" width="41.4" height="2.97" rx="1.48" style="fill: rgb(38, 50, 56); transform-origin: 403.25px 376.745px;" id="elzb16jw13lzp" class="animable">
		</rect>
		<g id="elmnpwd7letbn">
			<g style="opacity: 0.5; transform-origin: 407.875px 351.775px;" class="animable" id="elxv9kasarl1">
				<rect x="382.55" y="325.32" width="50.65" height="2.97" rx="1.48" style="fill: rgb(255, 255, 255); transform-origin: 407.875px 326.805px;" id="el1hljlxsd0kh" class="animable">
				</rect>
				<rect x="382.55" y="341.96" width="47.57" height="2.97" rx="1.48" style="fill: rgb(255, 255, 255); transform-origin: 406.335px 343.445px;" id="elojkh53m23qn" class="animable">
				</rect>
				<rect x="382.55" y="358.61" width="44.49" height="2.97" rx="1.48" style="fill: rgb(255, 255, 255); transform-origin: 404.795px 360.095px;" id="elvatblbv1wan" class="animable">
				</rect>
				<rect x="382.55" y="375.26" width="41.4" height="2.97" rx="1.48" style="fill: rgb(255, 255, 255); transform-origin: 403.25px 376.745px;" id="el0gz2p9n8jpn" class="animable">
				</rect>
			</g>
		</g>
		<rect x="327.59" y="395.95" width="57.11" height="3.16" rx="1.58" style="fill: rgb(38, 50, 56); transform-origin: 356.145px 397.53px;" id="eln2ynqjajw8f" class="animable">
		</rect>
		<g id="elor80xzpj8p">
			<g style="opacity: 0.5; transform-origin: 356.145px 397.53px;" class="animable" id="elar1l7zkh5ae">
				<rect x="327.59" y="395.95" width="57.11" height="3.16" rx="1.58" style="fill: rgb(255, 255, 255); transform-origin: 356.145px 397.53px;" id="el0hl9qbpzo3si" class="animable">
				</rect>
			</g>
		</g>
		<rect x="384.87" y="395.95" width="44.09" height="3.16" rx="1.58" style="fill: rgb(38, 50, 56); transform-origin: 406.915px 397.53px;" id="elebr322ishvp" class="animable">
		</rect>
		<g id="elkwfgmxb0up">
			<g style="opacity: 0.7; transform-origin: 406.915px 397.53px;" class="animable" id="el1oq6b5ggkzm">
				<rect x="384.87" y="395.95" width="44.09" height="3.16" rx="1.58" style="fill: rgb(255, 255, 255); transform-origin: 406.915px 397.53px;" id="elynnw5fsqsp" class="animable">
				</rect>
			</g>
		</g>
		<rect x="327.17" y="375.07" width="3.16" height="24.09" rx="1.58" style="fill: rgb(38, 50, 56); transform-origin: 328.75px 387.115px;" id="el20eugkajstd" class="animable">
		</rect>
		<g id="elcjoc9046ncc">
			<g style="opacity: 0.7; transform-origin: 328.75px 387.115px;" class="animable" id="els20ta18alx">
				<rect x="327.17" y="375.07" width="3.16" height="24.09" rx="1.58" style="fill: rgb(255, 255, 255); transform-origin: 328.75px 387.115px;" id="elakgzd9j3q6h" class="animable">
				</rect>
			</g>
		</g>
		<path d="M424,376.74h0a1.49,1.49,0,0,1-1.19-1.73l8.71-47a1.49,1.49,0,0,1,1.73-1.19h0a1.48,1.48,0,0,1,1.19,1.73l-8.71,47A1.48,1.48,0,0,1,424,376.74Z" style="fill: rgb(38, 50, 56); transform-origin: 428.626px 351.781px;" id="elxw8ifjg68f" class="animable">
		</path>
		<path d="M410.89,376.74h0a1.48,1.48,0,0,1-1.29-1.65l5.8-47a1.49,1.49,0,0,1,1.66-1.29h0a1.48,1.48,0,0,1,1.29,1.65l-5.8,47A1.49,1.49,0,0,1,410.89,376.74Z" style="fill: rgb(38, 50, 56); transform-origin: 413.975px 351.77px;" id="elffccbu76hm" class="animable">
		</path>
		<path d="M396.35,376.74h0a1.48,1.48,0,0,1-1.39-1.57l2.9-47a1.48,1.48,0,0,1,1.57-1.39h0a1.49,1.49,0,0,1,1.39,1.57l-2.9,47A1.48,1.48,0,0,1,396.35,376.74Z" style="fill: rgb(38, 50, 56); transform-origin: 397.89px 351.76px;" id="elxkawwempeoj" class="animable">
		</path>
		<rect x="381.07" y="326.8" width="2.97" height="49.94" rx="1.48" style="fill: rgb(38, 50, 56); transform-origin: 382.555px 351.77px;" id="ele3m8s363lpt" class="animable">
		</rect>
		<g id="el3qjzso1cpbw">
			<g style="opacity: 0.7; transform-origin: 407.768px 351.771px;" class="animable" id="elc2elaw9qakn">
				<path d="M424,376.74h0a1.49,1.49,0,0,1-1.19-1.73l8.71-47a1.49,1.49,0,0,1,1.73-1.19h0a1.48,1.48,0,0,1,1.19,1.73l-8.71,47A1.48,1.48,0,0,1,424,376.74Z" style="fill: rgb(255, 255, 255); transform-origin: 428.626px 351.781px;" id="elerkqmzhynvk" class="animable">
				</path>
				<path d="M410.89,376.74h0a1.48,1.48,0,0,1-1.29-1.65l5.8-47a1.49,1.49,0,0,1,1.66-1.29h0a1.48,1.48,0,0,1,1.29,1.65l-5.8,47A1.49,1.49,0,0,1,410.89,376.74Z" style="fill: rgb(255, 255, 255); transform-origin: 413.975px 351.77px;" id="elkr89tldz0a" class="animable">
				</path>
				<path d="M396.35,376.74h0a1.48,1.48,0,0,1-1.39-1.57l2.9-47a1.48,1.48,0,0,1,1.57-1.39h0a1.49,1.49,0,0,1,1.39,1.57l-2.9,47A1.48,1.48,0,0,1,396.35,376.74Z" style="fill: rgb(255, 255, 255); transform-origin: 397.89px 351.76px;" id="elejkg1clxbw7" class="animable">
				</path>
				<rect x="381.07" y="326.8" width="2.97" height="49.94" rx="1.48" style="fill: rgb(255, 255, 255); transform-origin: 382.555px 351.77px;" id="el8t88gkmqcc4" class="animable">
				</rect>
			</g>
		</g>
		<path d="M420.93,407.51A6.11,6.11,0,1,0,427,401.4,6.11,6.11,0,0,0,420.93,407.51Z" style="fill: rgb(38, 50, 56); transform-origin: 427.04px 407.51px;" id="elefl6y3e26zi" class="animable">
		</path>
		<g id="eltxmr45iu6je">
			<path d="M424,407.51a3.09,3.09,0,1,0,3.09-3.08A3.08,3.08,0,0,0,424,407.51Z" style="fill: rgb(255, 255, 255); opacity: 0.5; transform-origin: 427.09px 407.52px;" class="animable" id="elaog9c0uxcjj">
			</path>
		</g>
		<path d="M378.76,407.51a6.11,6.11,0,1,0,6.11-6.11A6.11,6.11,0,0,0,378.76,407.51Z" style="fill: rgb(38, 50, 56); transform-origin: 384.87px 407.51px;" id="el4w9hrggafv8" class="animable">
		</path>
		<g id="elx854nm4yits">
			<path d="M381.78,407.51a3.09,3.09,0,1,0,3.09-3.08A3.08,3.08,0,0,0,381.78,407.51Z" style="fill: rgb(255, 255, 255); opacity: 0.5; transform-origin: 384.87px 407.52px;" class="animable" id="elr4jw0vbler">
			</path>
		</g>
		<path d="M322.64,407.51a6.11,6.11,0,1,0,6.11-6.11A6.12,6.12,0,0,0,322.64,407.51Z" style="fill: rgb(38, 50, 56); transform-origin: 328.75px 407.51px;" id="elu9hjydp8uj" class="animable">
		</path>
		<g id="elid4vquqhvvf">
			<path d="M325.67,407.51a3.08,3.08,0,1,0,3.08-3.08A3.08,3.08,0,0,0,325.67,407.51Z" style="fill: rgb(255, 255, 255); opacity: 0.5; transform-origin: 328.75px 407.51px;" class="animable" id="elgg8s2rga50g">
			</path>
		</g>
	</g>
	<g id="freepik--Character--inject-35" class="animable" style="transform-origin: 142.385px 266.121px;">
		<path d="M130.27,146.33c-.25,2.79,1.18,5,3.18,5s3.82-2.26,4.07-5-1.18-5.05-3.19-5.05S130.51,143.54,130.27,146.33Z" style="fill: #FF005E; transform-origin: 133.895px 146.305px;" id="eluh0au6pu81k" class="animable">
		</path>
		<path d="M132.68,132.59s2.42,1.07,1.61,3.16c0,0,3.43,4.6,0,5.53l-3.7-7.8Z" style="fill: rgb(38, 50, 56); transform-origin: 133.202px 136.935px;" id="el64s4m03a0s9" class="animable">
		</path>
		<g id="elsv945kg7ldp">
			<path d="M129.05,146.33c-.24,2.79,1.19,5,3.19,5s3.82-2.26,4.06-5-1.18-5.05-3.18-5.05S129.3,143.54,129.05,146.33Z" style="opacity: 0.5; transform-origin: 132.675px 146.305px;" class="animable" id="elv0li1kj4ck">
			</path>
		</g>
		<polygon points="166.22 404.05 172.91 401.88 168.75 386.1 162.06 388.27 166.22 404.05" style="fill: rgb(206, 122, 99); transform-origin: 167.485px 395.075px;" id="elntpoemcgtrb" class="animable">
		</polygon>
		<path d="M173,401l-7.52,2.44a.5.5,0,0,0-.34.62l1.56,6.06a1.25,1.25,0,0,0,1.56.81c2.6-.89,3.8-1.45,7.11-2.53,2-.66,10.75-3.25,13.56-4.16s1.83-3.66.55-3.53c-5.7.6-12.82,1.2-15.19.32A2,2,0,0,0,173,401Z" style="fill: #FF005E; transform-origin: 177.931px 405.846px;" id="elzsxrsqna18" class="animable">
		</path>
		<g id="elqp8sv06dvbr">
			<polygon points="162.06 388.27 168.76 386.1 170.9 394.24 164.2 396.41 162.06 388.27" style="opacity: 0.2; transform-origin: 166.48px 391.255px;" class="animable" id="eleydhb4dwrbg">
			</polygon>
		</g>
		<path d="M145.75,228.53s9.51,57.27,12.32,77.25c3.08,21.87,15.2,85.85,15.2,85.85l-12.42,3.43s-17.74-62-22.77-83.26c-5.46-23.08-17.47-83.27-17.47-83.27Z" style="fill: rgb(38, 50, 56); transform-origin: 146.94px 311.795px;" id="ele8jgfakstf" class="animable">
		</path>
		<g id="el7188qh4zdpl">
			<path d="M130.5,252c4.86,12.14,5.41,32.77,3.44,41.22-3-13.88-6.4-30.49-9-43.4C125.85,246.52,127.55,244.64,130.5,252Z" style="opacity: 0.5; transform-origin: 129.973px 270.066px;" class="animable" id="ela8sqvqqy5d7">
			</path>
		</g>
		<polygon points="160.53 395.31 173.84 391.64 173.58 386.23 158.6 391.4 160.53 395.31" style="fill: rgb(38, 50, 56); transform-origin: 166.22px 390.77px;" id="elsskjb0zq34" class="animable">
		</polygon>
		<path d="M175.76,401.38a8.45,8.45,0,0,1-1.86.34.16.16,0,0,1-.16-.08.17.17,0,0,1,0-.18c.16-.22,1.64-2.13,2.56-2.07a.62.62,0,0,1,.51.32.89.89,0,0,1,.07.91A1.85,1.85,0,0,1,175.76,401.38Zm-1.5,0c1.27-.15,2.14-.48,2.35-.89a.57.57,0,0,0-.07-.59.26.26,0,0,0-.24-.16C175.8,399.69,174.87,400.61,174.26,401.36Z" style="fill: #FF005E; transform-origin: 175.344px 400.555px;" id="elui0mfkzs09f" class="animable">
		</path>
		<path d="M173.94,401.72h-.08a.15.15,0,0,1-.12-.1c0-.08-.81-1.95-.35-2.82a.82.82,0,0,1,.59-.43.63.63,0,0,1,.72.28c.39.68-.15,2.4-.69,3A.18.18,0,0,1,173.94,401.72Zm0-3a.49.49,0,0,0-.29.24,3.74,3.74,0,0,0,.25,2.27,3.26,3.26,0,0,0,.49-2.4c0-.09-.14-.18-.37-.13Z" style="fill: #FF005E; transform-origin: 174.041px 400.032px;" id="eluxfk3ip7b3a" class="animable">
		</path>
		<path d="M148.21,170.69c1.86,4,3.9,8.15,6,12.05,1.05,2,2.16,3.88,3.31,5.7a36.58,36.58,0,0,0,3.57,4.87,9.08,9.08,0,0,0,1.49,1.36c.07.06.11.07.08.07s.08,0,.13.08a5.41,5.41,0,0,0,.95.14,29.11,29.11,0,0,0,6-.48c4.31-.72,8.84-1.8,13.26-2.86l2,4.8a72.8,72.8,0,0,1-13.27,6,32.15,32.15,0,0,1-7.85,1.67,13.81,13.81,0,0,1-2.54-.06,10,10,0,0,1-1.57-.34,9.21,9.21,0,0,1-1.53-.6,16.57,16.57,0,0,1-4-2.91,41.08,41.08,0,0,1-5.11-6.09c-1.46-2.06-2.75-4.15-4-6.25s-2.38-4.23-3.44-6.4-2.11-4.28-3.08-6.6Z" style="fill: rgb(206, 122, 99); transform-origin: 161.805px 187.406px;" id="elepv0sq8h8t" class="animable">
		</path>
		<path d="M159.64,187.8l-11.12,8.3s-.43-.47-1.14-1.28l-1.94-2.32c-4.32-5.26-10.64-14.87-10.69-19.58-.07-7,7.21-8,15.38-.87,3.53,3.1,5.37,8.24,7.16,11.42.59,1.05,1.09,2,1.48,2.68Z" style="fill: #FF005E; transform-origin: 147.195px 181.632px;" id="el5ewntgrv3u9" class="animable">
		</path>
		<g id="elf1ar267hwwr">
			<path d="M159.64,187.8l-11.12,8.3s-.43-.47-1.14-1.28l-1.94-2.32c-4.32-5.26-10.64-14.87-10.69-19.58-.07-7,7.21-8,15.38-.87,3.53,3.1,5.37,8.24,7.16,11.42.59,1.05,1.09,2,1.48,2.68Z" style="opacity: 0.5; transform-origin: 147.195px 181.632px;" class="animable" id="ella0e1i7e5j">
			</path>
		</g>
		<polygon points="99.03 407.13 106.06 407.13 108.4 390.83 101.36 390.83 99.03 407.13" style="fill: rgb(206, 122, 99); transform-origin: 103.715px 398.98px;" id="elwgsiznm4df9" class="animable">
		</polygon>
		<path d="M106.5,406.31H98.6a.57.57,0,0,0-.57.48l-.93,6.26a1.13,1.13,0,0,0,1.12,1.25c2.76-.05,4.09-.21,7.57-.21,2.13,0,11.21.22,14.16.22s3.12-2.92,1.89-3.18c-5.5-1.19-12.32-2.83-14.17-4.39A1.82,1.82,0,0,0,106.5,406.31Z" style="fill: #FF005E; transform-origin: 109.827px 410.31px;" id="elrdk8a9rak1" class="animable">
		</path>
		<g id="elwa6jjn0ldy">
			<polygon points="101.36 390.84 108.4 390.84 107.19 399.24 100.15 399.24 101.36 390.84" style="opacity: 0.2; transform-origin: 104.275px 395.04px;" class="animable" id="elgz8oed3ok49">
			</polygon>
		</g>
		<path d="M133.15,228.17s-4,53.77-6.93,73.91c-3.18,22.06-15.83,95.13-15.83,95.13H97.5s6.62-71.29,7.76-93.13c1.23-23.7,3.61-75.91,3.61-75.91Z" style="fill: rgb(38, 50, 56); transform-origin: 115.325px 312.69px;" id="elsvpn5ri21ad" class="animable">
		</path>
		<polygon points="96.98 397.21 110.91 397.21 112.11 392.32 96.67 393.08 96.98 397.21" style="fill: rgb(38, 50, 56); transform-origin: 104.39px 394.765px;" id="el837komny572" class="animable">
		</polygon>
		<path d="M108.89,407.54a9.1,9.1,0,0,1-1.86-.25.16.16,0,0,1-.11-.13A.21.21,0,0,1,107,407c.24-.15,2.35-1.52,3.18-1.18a.56.56,0,0,1,.34.47,1,1,0,0,1-.28.89A2.06,2.06,0,0,1,108.89,407.54Zm-1.38-.49a3.34,3.34,0,0,0,2.52-.12.62.62,0,0,0,.17-.58.26.26,0,0,0-.16-.23C109.59,405.94,108.37,406.53,107.51,407.05Z" style="fill: #FF005E; transform-origin: 108.728px 406.657px;" id="eln6cd1nphzp" class="animable">
		</path>
		<path d="M107.07,407.29l-.07,0a.13.13,0,0,1-.08-.13c0-.09,0-2.11.79-2.79a.88.88,0,0,1,.72-.23.56.56,0,0,1,.55.49c.09.77-1.09,2.24-1.82,2.66Zm1.21-2.85a.56.56,0,0,0-.36.14,3.9,3.9,0,0,0-.66,2.24c.66-.52,1.45-1.64,1.39-2.14,0-.09-.06-.21-.29-.24Z" style="fill: #FF005E; transform-origin: 107.952px 405.711px;" id="el8u5nzjsoe8f" class="animable">
		</path>
		<g id="elgi2fjvvj0ih">
			<path d="M134.68,173.73c2.51-1.66,4.35,2.64,9.31,6.27,2.21,1.62,7.07,12.18,6.67,14.51l-2.15,1.59S134.62,180.72,134.68,173.73Z" style="opacity: 0.3; transform-origin: 142.682px 184.731px;" class="animable" id="elousfm3xtsz">
			</path>
		</g>
		<path d="M181.83,191.87l6.3-5.1,2.68,7.31s-6.67,3.84-8.26,2Z" style="fill: rgb(206, 122, 99); transform-origin: 186.32px 191.675px;" id="elp5jtnwh2y4q" class="animable">
		</path>
		<polygon points="195.28 187.96 195.83 193.53 190.81 194.08 188.13 186.77 195.28 187.96" style="fill: rgb(206, 122, 99); transform-origin: 191.98px 190.425px;" id="el8xbd9r5i1sp" class="animable">
		</polygon>
		<path d="M145.75,228.53H108.12c-.26-3.36.52-14.29-.06-28.21a179.25,179.25,0,0,0-3.74-30.69c-.17-.76-.34-1.51-.52-2.27,0,0,1.9-.39,4.64-.79,2.27-.33,5.11-.67,7.9-.8a139.73,139.73,0,0,1,16,0c2.46.22,4.86.63,6.78,1,2.45.49,3.89.92,3.89.92S152.27,189,145.75,228.53Z" style="fill: #FF005E; transform-origin: 125.938px 197.035px;" id="elfsp12r1teq9" class="animable">
		</path>
		<g id="elj3vc1bebcr">
			<path d="M145.75,228.53H108.12c-.26-3.36.52-14.29-.06-28.21a179.25,179.25,0,0,0-3.74-30.69c-.17-.76-.34-1.51-.52-2.27,0,0,1.9-.39,4.64-.79,2.27-.33,5.11-.67,7.9-.8a139.73,139.73,0,0,1,16,0c2.46.22,4.86.63,6.78,1,2.45.49,3.89.92,3.89.92S152.27,189,145.75,228.53Z" style="opacity: 0.5; transform-origin: 125.938px 197.035px;" class="animable" id="elh67weov74cj">
			</path>
		</g>
		<g id="el2mwbozb70pg">
			<path d="M108.06,200.32a179.25,179.25,0,0,0-3.74-30.69c2.51-.22,6.81,0,7.52,4.09C112.61,178.09,111.65,188.35,108.06,200.32Z" style="opacity: 0.3; transform-origin: 108.204px 184.946px;" class="animable" id="el1pfjjuwpcfk">
			</path>
		</g>
		<path d="M111,176.75,105.24,191l-2.76,7.1c-.86,2.34-1.73,4.75-2.29,6.82a52.86,52.86,0,0,0-1.08,7c-.24,2.51-.51,5.05-.7,7.61-.43,5.12-.86,10.29-1.35,15.44l-5.2.11c-.68-5.23-1.13-10.43-1.38-15.69-.11-2.63-.21-5.27-.18-7.95a50,50,0,0,1,.57-8.46,73.3,73.3,0,0,1,2.1-8.1c.79-2.56,1.64-5.06,2.53-7.54,1.78-5,3.68-9.81,5.78-14.66Z" style="fill: rgb(206, 122, 99); transform-origin: 100.646px 203.88px;" id="elcoevbay96l" class="animable">
		</path>
		<path d="M113.13,180.17a130.68,130.68,0,0,1-6.1,14.28c-.5,1.05-1,2-1.34,2.73-.67,1.32-1.09,2.11-1.09,2.11L90.35,191.4s.18-.6.5-1.61c.25-.76.57-1.75,1-2.9,2.37-6.77,7.22-18.84,12-19.53C110.9,166.33,116,171.64,113.13,180.17Z" style="fill: #FF005E; transform-origin: 102.147px 183.261px;" id="elkjl4ugmzrkd" class="animable">
		</path>
		<g id="elketw6wwfg2c">
			<path d="M113.13,180.17a130.68,130.68,0,0,1-6.1,14.28c-.5,1.05-1,2-1.34,2.73-.67,1.32-1.09,2.11-1.09,2.11L90.35,191.4s.18-.6.5-1.61c.25-.76.57-1.75,1-2.9,2.37-6.77,7.22-18.84,12-19.53C110.9,166.33,116,171.64,113.13,180.17Z" style="opacity: 0.5; transform-origin: 102.147px 183.261px;" class="animable" id="el9ycw26asntm">
			</path>
		</g>
		<path d="M125.86,170.11c-9-.16-10.13-4.31-10.13-4.31,3.48-3.43,2.14-12.82,1-18l4.28,3.55,5.83,4.84a19.73,19.73,0,0,0-.37,2.35c-.31,3.16.5,6,5.15,7.14,0,0,5.52,3.65-2.67,4.31Z" style="fill: rgb(206, 122, 99); transform-origin: 124.585px 158.955px;" id="elxc03v4g226" class="animable">
		</path>
		<g id="elgozkaeyw50r">
			<path d="M126.79,156.22a19.73,19.73,0,0,0-.37,2.35c-2.17-.43-5.08-2.75-5.38-5a10.87,10.87,0,0,1-.08-2.22Z" style="opacity: 0.2; transform-origin: 123.863px 154.96px;" class="animable" id="elylogzr0xhc">
			</path>
		</g>
		<path d="M114.92,140.42c1.49,6.84,2,10.91,6,14a9.1,9.1,0,0,0,14.72-6.55c.54-6.37-2-16.49-9.18-18.43A9.21,9.21,0,0,0,114.92,140.42Z" style="fill: rgb(206, 122, 99); transform-origin: 125.189px 142.724px;" id="elt5i8rd7cs4g" class="animable">
		</path>
		<path d="M113.34,147.56a7.51,7.51,0,0,0,4.34,2.58c2.16.37,2.65-1.63,1.55-3.56-1-1.74-3.3-4-5.22-3.51S111.94,145.88,113.34,147.56Z" style="fill: rgb(206, 122, 99); transform-origin: 116.104px 146.593px;" id="elo3irw8gbfec" class="animable">
		</path>
		<path d="M125.71,141.1c.09.56.46,1,.83.93s.59-.53.51-1.09-.46-1-.83-.94S125.63,140.54,125.71,141.1Z" style="fill: rgb(38, 50, 56); transform-origin: 126.38px 141.016px;" id="elckb6ei9kfa9" class="animable">
		</path>
		<path d="M132.08,140.34c.09.56.46,1,.83.94s.59-.54.51-1.1-.46-1-.83-.94S132,139.78,132.08,140.34Z" style="fill: rgb(38, 50, 56); transform-origin: 132.75px 140.26px;" id="el60rntqdbk89" class="animable">
		</path>
		<path d="M130.1,140.86a21.39,21.39,0,0,0,3.43,4.48,3.23,3.23,0,0,1-2.61.82Z" style="fill: rgb(186, 77, 60); transform-origin: 131.815px 143.524px;" id="elkf0rs1d47dg" class="animable">
		</path>
		<path d="M128.85,148a4.87,4.87,0,0,1-3.54-1.46.17.17,0,1,1,.25-.22,4.69,4.69,0,0,0,3.91,1.31.17.17,0,1,1,0,.33A5.07,5.07,0,0,1,128.85,148Z" style="fill: rgb(38, 50, 56); transform-origin: 127.462px 147.117px;" id="el4u04v6s2lbv" class="animable">
		</path>
		<path d="M123.43,139.28a.29.29,0,0,1-.16,0,.33.33,0,0,1-.13-.45,3.19,3.19,0,0,1,2.49-1.69.34.34,0,0,1,0,.67,2.51,2.51,0,0,0-1.94,1.34A.34.34,0,0,1,123.43,139.28Z" style="fill: rgb(38, 50, 56); transform-origin: 124.505px 138.216px;" id="eljpjd01avmna" class="animable">
		</path>
		<path d="M134.48,137.83a.33.33,0,0,1-.27-.14,2.81,2.81,0,0,0-2.11-1.28.33.33,0,0,1-.33-.33.33.33,0,0,1,.34-.33h0a3.42,3.42,0,0,1,2.65,1.56.35.35,0,0,1-.09.47A.41.41,0,0,1,134.48,137.83Z" style="fill: rgb(38, 50, 56); transform-origin: 133.292px 136.79px;" id="eledl9j7dmvy9" class="animable">
		</path>
		<path d="M92.08,233.21l-3.14,6.38,8.79-1.18s1.76-6.14-1.48-6.79Z" style="fill: rgb(206, 122, 99); transform-origin: 93.5736px 235.605px;" id="el657twsyezzj" class="animable">
		</path>
		<polygon points="91.39 245.75 98.6 244.43 97.73 238.41 88.94 239.59 91.39 245.75" style="fill: rgb(206, 122, 99); transform-origin: 93.77px 242.08px;" id="elqfugj1sg0z" class="animable">
		</polygon>
		<path d="M118.82,126.72s-3.69-8.38-6.4-1.38c0,0-6-4.24-6,1.66,0,0-5.14,1.33-1.28,5.25,0,0-4.45,2.72,0,5.94,0,0-1.93,4.91,2.53,5.33,0,0,0,6.36,3.83,2.81,0,0,.92,7.35,5.09,3.26l.5-4s3.24-2.25.91-9.59c0,0,10.18,1.93,8.34-1.16,0,0,9,.75,7.91-2.83,0,0,4.45-2.26,2.43-4.09,0,0,2.66-10.18-3.43-6.88,0,0-2.41-6.53-5.25-.66,0,0-3-.8-3.48,2.79,0,0-1.36-1-1.81,2.17Z" style="fill: rgb(38, 50, 56); transform-origin: 120.21px 134.38px;" id="ela6y8k2nzexu" class="animable">
		</path>
		<path d="M113.1,142.78v-7.34a10.09,10.09,0,0,1,7.19-9.67l2.46-.43a10.34,10.34,0,0,0-7.38,9.91v7.53Z" style="fill: #FF005E; transform-origin: 117.925px 134.06px;" id="elhd1vyvdgm4g" class="animable">
		</path>
		<path d="M118.79,146.33c.25,2.79-1.18,5-3.18,5s-3.82-2.26-4.07-5,1.18-5.05,3.19-5.05S118.55,143.54,118.79,146.33Z" style="fill: #FF005E; transform-origin: 115.165px 146.305px;" id="elbephmbwwn5" class="animable">
		</path>
		<g id="elxpmrjzyyn9k">
			<path d="M118.79,146.33c.25,2.79-1.18,5-3.18,5s-3.82-2.26-4.07-5,1.18-5.05,3.19-5.05S118.55,143.54,118.79,146.33Z" style="opacity: 0.5; transform-origin: 115.165px 146.305px;" class="animable" id="elembbp3f7xsm">
			</path>
		</g>
		<path d="M117.58,146.33c.24,2.79-1.18,5-3.18,5s-3.83-2.26-4.07-5,1.18-5.05,3.18-5.05S117.34,143.54,117.58,146.33Z" style="fill: #FF005E; transform-origin: 113.955px 146.305px;" id="elk1wgod1rei" class="animable">
		</path>
		<g id="elxvq7g1jsgyn">
			<g style="opacity: 0.5; transform-origin: 112.95px 146.33px;" class="animable" id="eloqa6eehj1s">
				<path d="M110.74,147.07c.37,1.44,1.39,2.52,2.5,2.52s1.94-1.08,2.05-2.52Z" style="fill: rgb(255, 255, 255); transform-origin: 113.015px 148.33px;" id="elyo7puv8mly" class="animable">
				</path>
				<path d="M115.17,145.59c-.37-1.44-1.39-2.52-2.5-2.52s-1.94,1.08-2.06,2.52Z" style="fill: rgb(255, 255, 255); transform-origin: 112.89px 144.33px;" id="ele08xcps7b8u" class="animable">
				</path>
			</g>
		</g>
	</g>
	<defs>
		<filter id="active" height="200%">
			<feMorphology in="SourceAlpha" result="DILATED" operator="dilate" radius="2">
			</feMorphology>
			<feFlood flood-color="#32DFEC" flood-opacity="1" result="PINK">
			</feFlood>
			<feComposite in="PINK" in2="DILATED" operator="in" result="OUTLINE">
			</feComposite>
			<feMerge>
				<feMergeNode in="OUTLINE">
				</feMergeNode>
				<feMergeNode in="SourceGraphic">
				</feMergeNode>
			</feMerge>
		</filter>
		<filter id="hover" height="200%">
			<feMorphology in="SourceAlpha" result="DILATED" operator="dilate" radius="2">
			</feMorphology>
			<feFlood flood-color="#ff0000" flood-opacity="0.5" result="PINK">
			</feFlood>
			<feComposite in="PINK" in2="DILATED" operator="in" result="OUTLINE">
			</feComposite>
			<feMerge>
				<feMergeNode in="OUTLINE">
				</feMergeNode>
				<feMergeNode in="SourceGraphic">
				</feMergeNode>
			</feMerge>
			<feColorMatrix type="matrix" values="0   0   0   0   0                0   1   0   0   0                0   0   0   0   0                0   0   0   1   0 ">
			</feColorMatrix>
		</filter>
	</defs>
</svg>
